HIERARCHY
ROOT joint_Root
{
	OFFSET 0.0 0.0 0.0
	CHANNELS 6 Xposition Yposition Zposition Zrotation Xrotation Yrotation 
	JOINT Hips
	{
		OFFSET -17.1583 93.1646 452.98
		CHANNELS 6 Xposition Yposition Zposition Zrotation Xrotation Yrotation 
		JOINT Spine
		{
			OFFSET 15.7357 0.0 0.0
			CHANNELS 6 Xposition Yposition Zposition Zrotation Xrotation Yrotation 
			JOINT Chest
			{
				OFFSET 8.98455 -0.406207 0.0
				CHANNELS 6 Xposition Yposition Zposition Zrotation Xrotation Yrotation 
				JOINT Neck
				{
					OFFSET 16.3773 0.0 0.0
					CHANNELS 6 Xposition Yposition Zposition Zrotation Xrotation Yrotation 
					JOINT Head
					{
						OFFSET 6.45672 0.0 0.0
						CHANNELS 6 Xposition Yposition Zposition Zrotation Xrotation Yrotation 
						End Site
						{
							OFFSET 0.0 0.0 0.0
						}
					}
				}
				JOINT Shoulder_L
				{
					OFFSET 12.9942 -0.242716 4.98039
					CHANNELS 6 Xposition Yposition Zposition Zrotation Xrotation Yrotation 
					JOINT UpperArm_L
					{
						OFFSET 5.34809 0.0 0.0
						CHANNELS 6 Xposition Yposition Zposition Zrotation Xrotation Yrotation 
						JOINT LowerArm_L
						{
							OFFSET 24.3286 1.87007e-05 0.0
							CHANNELS 6 Xposition Yposition Zposition Zrotation Xrotation Yrotation 
							JOINT Hand_L
							{
								OFFSET 22.2916 0.0 0.0
								CHANNELS 6 Xposition Yposition Zposition Zrotation Xrotation Yrotation 
								End Site
								{
									OFFSET 0.0 0.0 0.0
								}
							}
						}
					}
				}
				JOINT Shoulder_R
				{
					OFFSET 12.9945 -0.242716 -4.98039
					CHANNELS 6 Xposition Yposition Zposition Zrotation Xrotation Yrotation 
					JOINT UpperArm_R
					{
						OFFSET -5.34813 0.0 0.0
						CHANNELS 6 Xposition Yposition Zposition Zrotation Xrotation Yrotation 
						JOINT LowerArm_R
						{
							OFFSET -24.3289 0.000322201 0.0
							CHANNELS 6 Xposition Yposition Zposition Zrotation Xrotation Yrotation 
							JOINT Hand_R
							{
								OFFSET -22.2915 -0.000108084 0.0
								CHANNELS 6 Xposition Yposition Zposition Zrotation Xrotation Yrotation 
								End Site
								{
									OFFSET 0.0 0.0 0.0
								}
							}
						}
					}
				}
			}
		}
		JOINT UpperLeg_L
		{
			OFFSET -2.19248 -6.46944 0.0
			CHANNELS 6 Xposition Yposition Zposition Zrotation Xrotation Yrotation 
			JOINT LowerLeg_L
			{
				OFFSET 39.0811 0.0 -1.23785e-05
				CHANNELS 6 Xposition Yposition Zposition Zrotation Xrotation Yrotation 
				JOINT Foot_L
				{
					OFFSET 40.9854 0.0 -1.26872e-05
					CHANNELS 6 Xposition Yposition Zposition Zrotation Xrotation Yrotation 
					JOINT Toes_L
					{
						OFFSET 11.7543 0.0 0.0
						CHANNELS 6 Xposition Yposition Zposition Zrotation Xrotation Yrotation 
						End Site
						{
							OFFSET 0.0 0.0 0.0
						}
					}
				}
			}
		}
		JOINT UpperLeg_R
		{
			OFFSET -2.19251 6.46944 0.0
			CHANNELS 6 Xposition Yposition Zposition Zrotation Xrotation Yrotation 
			JOINT LowerLeg_R
			{
				OFFSET -39.0811 -0.00228153 -0.0401928
				CHANNELS 6 Xposition Yposition Zposition Zrotation Xrotation Yrotation 
				JOINT Foot_R
				{
					OFFSET -40.9854 0.0 0.0
					CHANNELS 6 Xposition Yposition Zposition Zrotation Xrotation Yrotation 
					JOINT Toes_R
					{
						OFFSET -11.7543 0.0 0.0
						CHANNELS 6 Xposition Yposition Zposition Zrotation Xrotation Yrotation 
						End Site
						{
							OFFSET 0.0 0.0 0.0
						}
					}
				}
			}
		}
	}
}
MOTION
Frames:	6
Frame Time:	0.0333333
0.000000 0.000000 0.000000 0.000000 0.000000 -0.000000 -1.945560 93.310300 -1.897700 87.362400 -1.046690 -0.889934 15.735700 0.000005 -0.000001 83.723600 88.237200 -82.077800 8.984550 -0.406207 -0.000000 -4.251500 -0.557652 3.272790 16.377300 -0.000001 -0.000001 3.060720 2.435210 -2.270190 6.456720 -0.000001 -0.000000 8.530780 2.216380 -0.613504 12.994200 -0.242716 4.980390 -92.248400 6.969910 -72.070800 5.348090 -0.000007 -0.000001 -74.998900 20.689900 4.253320 24.328600 0.000019 0.000005 15.170200 27.127700 -30.736800 22.291600 -0.000001 0.000005 -5.854270 5.079180 5.586820 12.994500 -0.242716 -4.980390 88.612000 4.501010 -72.842500 -5.348130 -0.000001 -0.000004 -71.984100 22.830100 0.385463 -24.328900 0.000322 -0.000009 4.467010 9.947070 -24.340500 -22.291500 -0.000108 -0.000004 -1.703860 5.253070 1.351640 -2.192480 -6.469440 -0.000000 -176.242000 -1.678760 -4.146700 39.081100 -0.000007 -0.000012 0.146500 -0.475806 17.113800 40.985400 -0.000006 -0.000013 1.468210 8.355410 -69.697100 11.754300 -0.000000 0.000003 0.000085 0.166180 -9.836700 -2.192510 6.469440 -0.000001 -174.886000 6.717730 179.897000 -39.081100 -0.002282 -0.040193 0.009897 -0.037026 10.044300 -40.985400 0.000008 0.000006 -1.477230 4.895560 -65.993200 -11.754300 -0.000006 -0.000006 -0.010093 0.271998 -5.522650
0.000000 0.000000 0.000000 0.000000 0.000000 -0.000000 -2.003890 93.316500 -1.936210 87.375500 -1.067490 -1.020870 15.735700 0.000005 -0.000001 83.094800 88.213800 -81.476700 8.984550 -0.406207 -0.000000 -4.209100 -0.598191 3.216050 16.377300 -0.000001 -0.000001 2.858320 2.403400 -2.202530 6.456720 -0.000001 -0.000000 8.076130 2.156030 -0.516218 12.994200 -0.242716 4.980390 -92.281200 7.033600 -71.979700 5.348090 -0.000007 -0.000001 -74.527500 18.647900 4.046480 24.328600 0.000019 0.000005 15.608800 27.038600 -31.572800 22.291600 -0.000001 0.000005 -5.666880 5.067840 5.841420 12.994500 -0.242716 -4.980390 88.610800 4.491940 -72.795400 -5.348130 -0.000001 -0.000004 -71.591100 21.232000 0.547317 -24.328900 0.000322 -0.000009 4.749130 9.790910 -26.042600 -22.291500 -0.000108 -0.000004 -1.635210 5.243160 1.612870 -2.192480 -6.469440 -0.000000 -176.217000 -1.640760 -4.282450 39.081100 -0.000007 -0.000012 0.145049 -0.472474 17.066600 40.985400 -0.000006 -0.000013 1.407440 8.309420 -69.644300 11.754300 -0.000000 0.000003 0.000024 0.167228 -9.794170 -2.192510 6.469440 -0.000001 -174.843000 6.751810 179.770000 -39.081100 -0.002282 -0.040193 0.009988 -0.037763 9.986000 -40.985400 0.000008 0.000006 -1.434170 4.953430 -65.950300 -11.754300 -0.000006 -0.000006 -0.010036 0.271573 -5.540010
0.000000 0.000000 0.000000 0.000000 0.000000 -0.000000 -2.069690 93.317200 -1.948020 87.352200 -1.136330 -1.075020 15.735700 0.000005 -0.000001 83.850100 88.163000 -82.259200 8.984550 -0.406207 -0.000000 -4.103540 -0.558010 3.163570 16.377300 -0.000001 -0.000001 2.678530 2.320020 -2.009210 6.456720 -0.000001 -0.000000 7.387530 2.154290 -0.380916 12.994200 -0.242716 4.980390 -92.306600 7.082220 -71.908200 5.348090 -0.000007 -0.000001 -74.034600 16.265100 4.003190 24.328600 0.000019 0.000005 16.339800 26.597800 -33.217600 22.291600 -0.000001 0.000005 -5.558800 5.047030 6.300880 12.994500 -0.242716 -4.980390 88.597900 4.503380 -72.686500 -5.348130 -0.000001 -0.000004 -71.122800 19.317700 0.823271 -24.328900 0.000322 -0.000009 4.982940 9.302430 -28.346900 -22.291500 -0.000108 -0.000004 -1.574280 5.237030 1.772980 -2.192480 -6.469440 -0.000000 -176.150000 -1.626500 -4.337360 39.081100 -0.000007 -0.000012 0.145707 -0.474365 17.075300 40.985400 -0.000006 -0.000013 1.345380 8.245030 -69.647500 11.754300 -0.000000 0.000003 0.000052 0.166741 -9.813950 -2.192510 6.469440 -0.000001 -174.771000 6.669890 179.744000 -39.081100 -0.002282 -0.040193 0.009528 -0.035425 9.910650 -40.985400 0.000008 0.000006 -1.391780 4.946370 -65.892700 -11.754300 -0.000006 -0.000006 -0.009941 0.270866 -5.568950
0.000000 0.000000 0.000000 0.000000 0.000000 -0.000000 -2.146450 93.326800 -1.986850 87.321600 -1.156120 -1.233090 15.735700 0.000005 -0.000001 83.355800 88.134300 -81.778200 8.984550 -0.406207 -0.000000 -4.049660 -0.594025 3.135870 16.377300 -0.000001 -0.000001 2.384910 2.263040 -1.680850 6.456720 -0.000001 -0.000000 6.649320 2.259640 -0.225037 12.994200 -0.242716 4.980390 -92.333000 7.104250 -71.767500 5.348090 -0.000007 -0.000001 -73.558100 14.013500 4.278630 24.328600 0.000019 0.000005 17.650300 25.794500 -36.175100 22.291600 -0.000001 0.000005 -5.586370 5.008620 7.135230 12.994500 -0.242716 -4.980390 88.589200 4.505460 -72.593300 -5.348130 -0.000001 -0.000004 -70.653900 16.718500 1.193510 -24.328900 0.000322 -0.000009 5.472220 9.006640 -31.469900 -22.291500 -0.000108 -0.000004 -1.552840 5.219260 2.231000 -2.192480 -6.469440 -0.000000 -176.082000 -1.545510 -4.507150 39.081100 -0.000007 -0.000012 0.146850 -0.478661 17.055900 40.985400 -0.000006 -0.000013 1.270890 8.143100 -69.671800 11.754300 -0.000000 0.000003 0.000008 0.167491 -9.783490 -2.192510 6.469440 -0.000001 -174.684000 6.638100 179.603000 -39.081100 -0.002282 -0.040193 0.008850 -0.031872 9.810680 -40.985400 0.000008 0.000006 -1.576600 4.956290 -65.789100 -11.754300 -0.000006 -0.000006 -0.009964 0.271036 -5.561990
0.000000 0.000000 0.000000 0.000000 0.000000 -0.000000 -2.234360 93.322300 -2.016500 87.239800 -1.171060 -1.392830 15.735700 0.000005 -0.000001 83.279700 88.109900 -81.689600 8.984550 -0.406207 -0.000000 -4.001510 -0.605265 3.160530 16.377300 -0.000001 -0.000001 2.183250 2.222620 -1.279060 6.456720 -0.000001 -0.000000 5.620730 2.368990 0.069014 12.994200 -0.242716 4.980390 -92.371600 7.160250 -71.620000 5.348090 -0.000007 -0.000001 -72.996700 11.978800 4.906030 24.328600 0.000019 0.000005 19.842000 24.811600 -40.692500 22.291600 -0.000001 0.000005 -5.933140 4.976050 7.824840 12.994500 -0.242716 -4.980390 88.588600 4.457440 -72.410300 -5.348130 -0.000001 -0.000004 -70.123800 14.219700 1.662540 -24.328900 0.000322 -0.000009 6.133940 8.656020 -35.533200 -22.291500 -0.000108 -0.000004 -1.295420 5.188760 2.999030 -2.192480 -6.469440 -0.000000 -175.944000 -1.433250 -4.755030 39.081100 -0.000007 -0.000012 0.149299 -0.482707 17.186900 40.985400 -0.000006 -0.000013 1.184130 8.008560 -69.683700 11.754300 -0.000000 0.000003 0.000028 0.167147 -9.797450 -2.192510 6.469440 -0.000001 -174.525000 6.664200 179.477000 -39.081100 -0.002282 -0.040193 0.008353 -0.029336 9.697980 -40.985400 0.000008 0.000006 -1.527490 5.019730 -65.682300 -11.754300 -0.000006 -0.000006 -0.009992 0.271244 -5.553500
0.000000 0.000000 0.000000 0.000000 0.000000 -0.000000 -2.339970 93.327900 -2.049370 87.122800 -1.109900 -1.559030 15.735700 0.000005 -0.000001 82.896900 88.088300 -81.275400 8.984550 -0.406207 -0.000000 -3.960960 -0.638321 3.222430 16.377300 -0.000001 -0.000001 1.992230 2.186130 -0.771262 6.456720 -0.000001 -0.000000 4.442020 2.583860 0.490078 12.994200 -0.242716 4.980390 -92.395700 7.163130 -71.452900 5.348090 -0.000007 -0.000001 -72.489200 10.011800 5.650920 24.328600 0.000019 0.000005 22.256800 23.258800 -46.022300 22.291600 -0.000001 0.000005 -6.194500 4.947970 8.407090 12.994500 -0.242716 -4.980390 88.587500 4.403280 -72.194600 -5.348130 -0.000001 -0.000004 -69.561200 11.600800 2.270510 -24.328900 0.000322 -0.000009 7.405010 8.702660 -40.661700 -22.291500 -0.000108 -0.000004 -1.129750 5.166680 3.541270 -2.192480 -6.469440 -0.000000 -175.770000 -1.184670 -4.993150 39.081100 -0.000007 -0.000012 0.155029 -0.498016 17.291300 40.985400 -0.000006 -0.000013 1.088220 7.853250 -69.797800 11.754300 -0.000000 0.000003 0.000087 0.166144 -9.838180 -2.192510 6.469440 -0.000001 -174.351000 6.784720 179.397000 -39.081100 -0.002282 -0.040193 0.006668 -0.019958 9.468530 -40.985400 0.000008 0.000006 -1.772280 5.110960 -65.485500 -11.754300 -0.000006 -0.000006 -0.010080 0.271903 -5.526520
